The Scorpion King 3: Battle for Redemption (2012) 1080p MultiSubs
.
The Scorpion King 3 Battle for Redemption (2012) 1080p MKV X264 AC3+DTS MultiSubs
[IMG]http://img190.imageshack.us/img190/1872/72453292.jpg[/IMG]
.
Thailand
Actie / Avontuur

geregisseerd door Roel ReinÚ
met Victor Webster, Ron Perlman en Billy Zane

Mathayus heeft zijn geliefde koningin verloren en is verdreven uit zijn vroegere koninkrijk door een kwaadaardige plaag. Nu is hij een huurmoordenaar die van Horus, de koning van Egypte, de opdracht krijgt om koning Ramusan te beschermen tegen een dreigende aanval. In ruil voor zijn diensten krijgt hij de belofte om met Silda, de dochter van Ramusan, te trouwen en in bezit te komen van het legendarische 'Eye of Gods' medaillon dat bovennatuurlijke krachten geeft aan zijn drager. Maar om zijn beloning in ontvangst te nemen zal hij eerst de prinses moeten redden die gevangen wordt gehouden door Talus, de sluwe broer van Horus.
. 
http://www.moviemeter.nl/film/80091
.
PLOT
. 
http://www.imdb.com/title/tt1781896/
.
INFO
.
Source: The Scorpion King 3??Battle for Redemption 2011 BluRay 1080p VC-1 DTS-HD MA5.1-CHDBits
Video: 1920x1080 16:9
Audio: English AC3+DTS
Subs: Dutch, English, English FHI, Romanian, Brazilian, Arabic
Quality over Quantity (QoQ) «eleases Vertalingen.(Thanks good Job)
.
Enjoy
.
Format                           : Matroska
Format version                   : Version 2
File size                        : 9.40 GiB
Duration                         : 1h 45mn
Overall bit rate                 : 12.8 Mbps
Encoded date                     : UTC 2011-12-26 18:53:10
Writing application              : mkvmerge v5.2.0 ('I can't explain') built on Dec 18 2011 18:12:03
Writing library                  : libebml v1.2.3 + libmatroska v1.3.0

Video
ID                               : 1
Format                           : AVC
Format/Info                      : Advanced Video Codec
Format profile                   : High@L4.1
Format settings, CABAC           : Yes
Format settings, ReFrames        : 4 frames
Codec ID                         : V_MPEG4/ISO/AVC
Duration                         : 1h 45mn
Bit rate                         : 10.6 Mbps
Width                            : 1 920 pixels
Height                           : 1 080 pixels
Display aspect ratio             : 16:9
Frame rate                       : 23.976 fps
Color space                      : YUV
Chroma subsampling               : 4:2:0
Bit depth                        : 8 bits
Scan type                        : Progressive
Bits/(Pixel*Frame)               : 0.214
Stream size                      : 7.63 GiB (81%)
Writing library                  : x264 core 120 r2120 0c7dab9
Encoding settings                : cabac=1 / ref=4 / deblock=1:-3:-3 / analyse=0x3:0x133 / me=umh / subme=11 / psy=1 / psy_rd=1.05:0.00 / mixed_ref=1 / me_range=32 / chroma_me=1 / trellis=2 / 8x8dct=1 / cqm=0 / deadzone=21,11 / fast_pskip=0 / chroma_qp_offset=-2 / threads=12 / sliced_threads=0 / nr=0 / decimate=0 / interlaced=0 / bluray_compat=0 / constrained_intra=0 / bframes=7 / b_pyramid=2 / b_adapt=2 / b_bias=0 / direct=3 / weightb=1 / open_gop=0 / weightp=2 / keyint=240 / keyint_min=24 / scenecut=40 / intra_refresh=0 / rc_lookahead=240 / rc=2pass / mbtree=1 / bitrate=10639 / ratetol=1.0 / qcomp=0.70 / qpmin=0 / qpmax=69 / qpstep=4 / cplxblur=20.0 / qblur=0.5 / ip_ratio=1.40 / aq=1:0.85
Language                         : English
Default                          : No
Forced                           : No

Audio #1
ID                               : 2
Format                           : DTS
Format/Info                      : Digital Theater Systems
Codec ID                         : A_DTS
Duration                         : 1h 45mn
Bit rate mode                    : Constant
Bit rate                         : 1 510 Kbps
Channel(s)                       : 6 channels
Channel positions                : Front: L C R, Side: L R, LFE
Sampling rate                    : 48.0 KHz
Bit depth                        : 24 bits
Compression mode                 : Lossy
Delay relative to video          : 2ms
Stream size                      : 1.11 GiB (12%)
Title                            : DTS
Language                         : English
Default                          : No
Forced                           : Yes

Audio #2
ID                               : 3
Format                           : AC-3
Format/Info                      : Audio Coding 3
Mode extension                   : CM (complete main)
Codec ID                         : A_AC3
Duration                         : 1h 45mn
Bit rate mode                    : Constant
Bit rate                         : 640 Kbps
Channel(s)                       : 6 channels
Channel positions                : Front: L C R, Side: L R, LFE
Sampling rate                    : 48.0 KHz
Bit depth                        : 16 bits
Compression mode                 : Lossy
Stream size                      : 482 MiB (5%)
Title                            : AC3
Language                         : English
Default                          : Yes
Forced                           : No

Text #1
ID                               : 4
Format                           : UTF-8
Codec ID                         : S_TEXT/UTF8
Codec ID/Info                    : UTF-8 Plain Text
Title                            : Nederlands QoQ-Team
Language                         : Dutch
Default                          : No
Forced                           : No

Text #2
ID                               : 5
Format                           : UTF-8
Codec ID                         : S_TEXT/UTF8
Codec ID/Info                    : UTF-8 Plain Text
Title                            : Engels
Language                         : English
Default                          : No
Forced                           : No

Text #3
ID                               : 6
Format                           : UTF-8
Codec ID                         : S_TEXT/UTF8
Codec ID/Info                    : UTF-8 Plain Text
Title                            : English FHI
Language                         : English
Default                          : No
Forced                           : No

Text #4
ID                               : 7
Format                           : UTF-8
Codec ID                         : S_TEXT/UTF8
Codec ID/Info                    : UTF-8 Plain Text
Title                            : Romanian
Language                         : Romanian
Default                          : No
Forced                           : No

Text #5
ID                               : 8
Format                           : UTF-8
Codec ID                         : S_TEXT/UTF8
Codec ID/Info                    : UTF-8 Plain Text
Title                            : Brazilian
Default                          : No
Forced                           : No

Text #6
ID                               : 9
Format                           : UTF-8
Codec ID                         : S_TEXT/UTF8
Codec ID/Info                    : UTF-8 Plain Text
Title                            : Arabic
Language                         : Arabic
Default                          : No
Forced                           : No


